<?xml version="1.0" encoding="utf-8"?>
<!-- Generator: Adobe Illustrator 18.1.1, SVG Export Plug-In . SVG Version: 6.00 Build 0)  -->
<svg version="1.1" id="Capa_1" xmlns="http://www.w3.org/2000/svg" xmlns:xlink="http://www.w3.org/1999/xlink" x="0px" y="0px"
	 width="153.9px" height="153.9px" viewBox="-289.9 474.8 153.9 153.9" enable-background="new -289.9 474.8 153.9 153.9"
	 xml:space="preserve">
<g>
	<g>
		<path fill="#4E2A84" d="M-174.5,532.5c0-31.9-25.9-57.7-57.7-57.7c-31.9,0-57.7,25.9-57.7,57.7s25.9,57.7,57.7,57.7
			C-200.4,590.3-174.5,564.4-174.5,532.5z M-232.2,575.8c-23.9,0-43.3-19.4-43.3-43.3s19.4-43.3,43.3-43.3s43.3,19.4,43.3,43.3
			S-208.4,575.8-232.2,575.8z"/>
		<path fill="#4E2A84" d="M-140.2,604.1l-35.3-35.3c-5.3,8.2-12.3,15.2-20.5,20.4l35.3,35.3c5.6,5.6,14.8,5.6,20.4,0
			C-134.6,618.9-134.6,609.8-140.2,604.1z"/>
	</g>
</g>
</svg>
